<svg width="220" height="51" viewBox="0 0 220 51" fill="none" xmlns="http://www.w3.org/2000/svg">
<path d="M23.332 6.86419C23.332 6.603 19.0844 7.45971 18.7135 7.58508C14.2525 9.01643 10.9989 12.4104 10.1705 16.4969C9.65769 19.4146 10.4085 22.3945 12.2764 24.8549C14.2027 27.4773 17.1461 29.0339 20.1134 30.622C21.4535 31.3324 22.8175 31.9802 24.2055 32.5966C25.9917 33.2962 27.5502 34.3734 28.7402 35.7308C30.0555 37.4662 30.1794 39.6905 29.0632 41.5292C27.8881 43.3414 25.7046 44.4774 23.32 44.5172L23.32 50.4828C26.5373 50.4723 29.644 49.4569 32.0784 47.6202C36.8644 44.0157 38.2164 37.0577 34.4714 32.4921C32.5603 30.3488 30.1657 28.5709 27.436 27.2683C24.6841 25.837 21.7048 24.7713 19.2759 22.9117C18.2405 22.1657 17.4653 21.1812 17.0384 20.0699C16.5086 18.2894 17.0239 16.3954 18.4144 15.0133C19.0249 14.3725 19.7779 13.8465 20.6279 13.4671C20.8313 13.3835 23.344 12.6939 23.344 12.9029L23.332 6.86419Z" fill="#0091F2"/>
<rect y="6.81201" width="5.88677" height="18.2728" fill="#0143AE"/>
<path d="M35.9551 6.82227V20.7071H45.9698V25.0846H30.0444V6.82227H35.9551Z" fill="#0143AE"/>
<path d="M65.3049 25.0846H48.5659V6.82227H64.8861V11.1476H54.4048V13.7595H64.2879V17.9594H54.4048V20.728H65.3049V25.0846Z" fill="#0143AE"/>
<path d="M81.5413 11.8788C80.1129 10.9932 78.3855 10.5517 76.6357 10.6251C75.1999 10.6251 73.8 11.0221 73.8 11.9833C73.8 13.237 75.1999 13.4251 77.2698 13.6027C81.4217 13.9892 85.753 15.4519 85.753 19.6622C85.753 23.8726 81.2661 25.586 76.5758 25.6069C72.8069 25.6069 70.1267 25.0636 67.2192 22.3995L70.4857 19.1399C72.116 20.5366 74.3289 21.2914 76.6117 21.2294C78.5501 21.2294 79.9021 20.6339 79.9021 19.61C79.9021 18.5861 78.7056 18.1265 76.3964 17.9384C71.8258 17.5727 67.8773 16.5593 67.8773 12.0146C67.8773 8.14903 72.2086 6.48787 76.6357 6.48787C79.4553 6.36092 82.2343 7.11667 84.4727 8.61917L81.5413 11.8788Z" fill="#0143AE"/>
<path d="M111.884 19.0564V17.646H114.002V13.9893H103.688C103.054 14.0354 102.427 13.8525 101.952 13.4832C101.477 13.1139 101.196 12.5906 101.175 12.0356C101.175 9.78941 106.524 9.6327 106.584 12.0356H111.968C111.968 7.85661 108.079 6.42529 103.868 6.42529C100.158 6.42529 95.1691 7.679 95.1691 12.0879C95.1466 13.566 96.0201 14.9446 97.4663 15.7132C95.7511 16.5161 94.6168 18.0214 94.4512 19.7146C94.4512 24.1235 98.4594 25.3249 102.456 25.3249C104.858 25.4557 107.206 24.6617 108.881 23.1519C109.862 25.3249 112.219 25.4294 114.11 25.116V20.6026C113.565 20.7425 112.977 20.6428 112.532 20.3354C112.088 20.028 111.841 19.5511 111.872 19.0564M106.548 18.9519C106.548 20.4146 104.897 21.2295 103.162 21.2295C101.666 21.2295 100.266 20.728 100.266 19.4743C100.266 18.0116 102.001 17.7296 103.341 17.7296H106.548V18.9519Z" fill="#0143AE"/>
<path d="M73.1058 50.4202H67.3387L58.6401 32.0742H65.185L67.578 37.5592L70.2103 44.3188L72.8665 37.5592L75.2595 32.0742H81.8043L73.1058 50.4202Z" fill="#0143AE"/>
<path d="M45.7781 32.0742H51.5572L60.2438 50.4202H53.6989L51.3059 44.9456L48.6856 38.186L46.0174 44.9456L43.6364 50.4202H37.0796L45.7781 32.0742Z" fill="#0143AE"/>
<path d="M88.7918 32.0742H94.5589L103.257 50.4202H96.7126L94.3196 44.9456L91.6873 38.186L89.0311 44.9456L86.6381 50.4202H80.0933L88.7918 32.0742Z" fill="#0143AE"/>
<path d="M160.379 32.0742H166.146L174.844 50.4202H168.3L165.907 44.9456L163.274 38.186L160.618 44.9456L158.225 50.4202H151.68L160.379 32.0742Z" fill="#0143AE"/>
<path d="M119.65 42.0725C119.495 39.8786 119.495 39.0427 119.471 38.3428V32.0742H125.453V50.347H120.428L111.705 40.5054L111.789 44.4964V50.347H105.807V32.0742H110.82L119.65 42.0725Z" fill="#0143AE"/>
<path d="M143.472 42.0725C143.316 39.8786 143.316 39.0427 143.292 38.3428V32.0742H149.275V50.347H144.25L135.527 40.5054L135.611 44.4964V50.347H129.628V32.0742H134.642L143.472 42.0725Z" fill="#0143AE"/>
<path d="M214.604 10.5835L215.944 9.98796C215.944 9.8208 215.944 9.65364 215.944 9.48648L208.191 8.57754C208.813 6.66563 206.408 6.85369 205.355 5.76714L208.765 5.54774C208.765 5.3179 208.837 5.0985 208.885 4.8791C207.333 4.39217 205.73 4.04217 204.099 3.83434C201.663 3.77715 199.225 3.85042 196.8 4.05374C195.603 4.11643 194.886 3.82389 194.67 2.57019L196.369 2.15228L198.02 1.70304C197.152 0.276114 195.204 -0.364073 193.474 0.209035C190.797 0.895023 187.996 1.13253 185.218 0.909024C183.378 0.7837 181.53 0.783696 179.69 0.909024C178.254 0.982155 176.818 1.19111 176.459 2.47616C172.332 2.47616 168.359 2.47616 164.387 2.47616C163.496 2.47656 162.609 2.58916 161.755 2.81048C160.54 3.06104 159.639 3.95274 159.505 5.03581L161.97 5.33879C161.97 5.65222 161.97 5.54774 161.97 5.86117L157.83 6.19549C155.55 6.29701 153.278 6.49925 151.022 6.80145C149.407 7.09398 148.629 8.20142 149.167 10.1551C147.05 10.5939 145.099 10.97 143.185 11.3984C142.096 11.6282 140.325 11.3984 140.433 12.7775C140.541 14.1565 142.276 13.9058 143.472 13.9685C144.896 14.0416 146.152 14.1879 146.81 15.5774C147.182 15.976 147.756 16.1874 148.342 16.1416C148.969 15.9916 149.541 15.7039 150.005 15.3058C152.302 13.6133 155.006 13.2789 157.866 13.3103C160.726 13.3416 163.262 13.6237 165.32 15.7759C167.641 18.2206 170.369 20.3519 172.894 22.6504C173.316 23.0214 173.642 23.4666 173.851 23.9564V24.0399C176.021 29.4642 177.137 35.1671 177.153 40.9128L177.153 50.3156H183.136V43.7232C183.136 41.9287 184.802 40.474 186.857 40.474C188.912 40.474 190.578 41.9287 190.578 43.7232V50.3678H196.561V43.2217C196.564 41.1002 195.601 39.0646 193.884 37.5635C192.167 36.0623 189.837 35.2188 187.407 35.2188H183.112C183.111 34.8685 183.075 34.5189 183.004 34.1741C182.684 32.3058 181.895 30.5222 180.695 28.9503C179.415 27.3414 179.798 26.2757 181.389 25.3041C181.648 25.1461 181.915 24.9997 182.191 24.8653C184.257 23.9866 186.084 22.7328 187.551 21.1878C189.34 18.7037 192.581 17.3131 195.926 17.5938C200.94 17.7923 205.14 15.964 209.208 13.7073C209.886 13.3608 210.68 13.2281 211.457 13.3312C212.787 13.5888 214.091 13.9381 215.358 14.3759C217.416 15.0028 218.349 13.3312 219.904 12.8819C219.904 12.7252 219.904 12.5685 220 12.4013L214.544 10.5521M182.143 5.99699L184.703 6.21639C184.703 7.06264 184.38 8.01337 184.787 8.41038C185.194 8.80738 186.402 9.06857 187.551 9.45513C186.354 9.75811 185.493 9.99841 184.62 10.1865C183.746 10.3745 182.813 10.5417 181.616 10.782C181.808 9.05813 181.975 7.56412 182.143 5.98654M180.492 7.10443C180.3 8.24321 180.109 9.42379 179.905 10.6044C176.829 10.3521 174.162 8.64143 172.966 6.1537L180.492 7.10443ZM179.379 15.0864L177.704 18.2206C177.429 16.9251 177.237 16.0476 177.046 15.0864H179.379ZM157.351 10.3536L157.052 9.72677L158.919 8.0865C159.505 9.13126 159.816 9.63274 160.223 10.3536L157.351 10.3536ZM162.604 9.7999C161.348 9.96706 160.881 9.70588 160.534 8.66112C164.124 8.02382 168.156 9.52827 171.303 6.5716C171.721 7.14622 172.152 7.75218 172.499 8.29545C171.087 8.92231 169.831 9.50737 168.539 10.0402C168.323 10.1342 167.988 9.98796 167.713 9.97751C165.996 9.77819 164.26 9.72919 162.532 9.83125M173.648 21.731C172.224 20.2161 171.111 18.952 169.891 17.761C169.018 16.954 168.091 16.1935 167.115 15.4834C166.564 15.0759 165.918 14.7521 165.344 14.4386L165.667 14.0207C166.547 14.6192 167.498 15.1341 168.503 15.5565C169.607 15.9018 170.777 16.0579 171.949 16.0162C173.194 15.8669 174.419 15.615 175.61 15.264C176.806 17.6983 175.155 19.3908 173.648 21.7833M181.556 23.2459C180.187 23.5238 179.004 24.2738 178.278 25.325C177.938 25.9584 177.774 26.6528 177.8 27.3518C177.584 27.0802 177.381 26.819 177.201 26.5578C174.808 23.225 175.167 21.334 178.182 18.5968C179.016 17.7422 179.791 16.8456 180.504 15.9117L180.815 16.058C181.473 15.6088 182.107 15.1282 182.789 14.7103C183.141 14.4682 183.549 14.2969 183.985 14.2088C185.062 14.073 186.163 14.0312 187.575 13.9267C186.378 16.4968 185.361 18.8579 184.081 21.0937C183.561 22.0331 182.668 22.7756 181.568 23.1832M197.578 16.5804C196.15 16.6309 194.72 16.6134 193.294 16.5281C191.043 16.2506 188.846 17.2777 187.862 19.0669C187.595 19.441 187.287 19.791 186.941 20.1117L186.486 19.9236C187.204 18.0012 187.934 16.0789 188.712 14.0103C191.622 15.1881 194.949 15.3083 197.961 14.3446C198.643 14.1356 199.624 13.7386 199.731 13.2998C199.839 12.861 199.121 12.1715 198.631 11.6909C198.145 11.2481 197.616 10.8427 197.051 10.479C198.319 9.76856 201.55 9.43424 201.837 10.1342C202.088 11.1212 202.177 12.1343 202.1 13.1431H207.293C204.562 15.1304 201.184 16.3182 197.637 16.5386" fill="#F78F1F"/>
<path d="M85.3941 26.9131V29.2847L83.4797 30.225C82.3085 30.7961 80.8819 30.7961 79.7107 30.225L77.6168 29.1802C77.1711 28.9759 76.6388 28.9759 76.193 29.1802L74.0034 30.1623C72.9081 30.643 71.6169 30.643 70.5216 30.1623L68.4277 29.2847V27.0176L71.5626 28.3757C71.9917 28.5639 72.4974 28.5639 72.9266 28.3757L75.1162 27.3937C76.2396 26.8773 77.5822 26.8773 78.7057 27.3937L80.8115 28.4384C81.2724 28.6636 81.8342 28.6636 82.2951 28.4384L85.3941 26.9131Z" fill="#0143AE"/>
</svg>
