<svg width="684" height="339" viewBox="0 0 684 339" fill="none" xmlns="http://www.w3.org/2000/svg">
<mask id="mask0_41_506" style="mask-type:alpha" maskUnits="userSpaceOnUse" x="0" y="0" width="684" height="339">
<rect x="0.966797" y="0.301758" width="682.345" height="337.86" fill="#F5F0EA"/>
<rect x="0.966797" y="0.301758" width="682.345" height="337.86" stroke="white"/>
</mask>
<g mask="url(#mask0_41_506)">
<path d="M519.076 0.301758H683.276V152.339C683.276 152.339 560.126 190.348 519.076 152.339C478.025 114.33 519.076 0.301758 519.076 0.301758Z" fill="#0091F2"/>
<path d="M519.076 0.301758H683.276V152.339C683.276 152.339 560.126 190.348 519.076 152.339C478.025 114.33 519.076 0.301758 519.076 0.301758Z" stroke="white"/>
<path d="M217 235.42C217 231.554 220.134 228.42 224 228.42H532C535.866 228.42 539 231.554 539 235.42V273.42C539 277.286 535.866 280.42 532 280.42H224C220.134 280.42 217 277.286 217 273.42V235.42Z" fill="#F78F1F"/>
<path d="M217 235.42C217 231.554 220.134 228.42 224 228.42H532C535.866 228.42 539 231.554 539 235.42V273.42C539 277.286 535.866 280.42 532 280.42H224C220.134 280.42 217 277.286 217 273.42V235.42Z" stroke="white"/>
<path d="M325.192 247.22L320.536 258.468H317.448L312.792 247.22H316.296L317.576 250.58L318.984 254.724L320.408 250.58L321.688 247.22H325.192ZM329.272 258.42H326.12V247.22H329.272V258.42ZM340.502 255.748V258.42H331.542V247.22H340.278V249.876H334.662V251.476H339.958V254.052H334.662V255.748H340.502ZM358.308 247.22L354.228 258.404H351.652L349.668 253.044L347.748 258.404H345.188L341.012 247.22H344.468L345.908 251.156C346.068 251.647 346.266 252.511 346.5 253.748L348.564 247.22H350.756L352.884 253.748C353.044 252.884 353.252 251.993 353.508 251.076L354.852 247.22H358.308ZM364.832 258.42V249.828H361.568V247.22H371.264V249.828H367.984V258.42H364.832ZM382.972 258.436H379.836V254.196H375.804V258.436H372.636V247.236H375.804V251.492H379.836V247.236H382.972V258.436ZM388.397 258.42H385.245V247.22H388.397V258.42ZM399.131 248.324L397.563 250.324C396.881 249.812 396.006 249.556 394.939 249.556C394.513 249.556 394.15 249.625 393.851 249.764C393.563 249.903 393.419 250.111 393.419 250.388C393.419 250.74 393.563 250.98 393.851 251.108C394.139 251.225 394.614 251.316 395.275 251.38C395.883 251.444 396.438 251.556 396.939 251.716C397.441 251.865 397.915 252.079 398.363 252.356C398.822 252.633 399.179 253.007 399.435 253.476C399.691 253.935 399.819 254.473 399.819 255.092C399.819 255.903 399.579 256.591 399.099 257.156C398.619 257.721 398.017 258.127 397.291 258.372C396.577 258.607 395.782 258.729 394.907 258.74C393.819 258.751 392.897 258.623 392.139 258.356C391.382 258.079 390.635 257.551 389.899 256.772L391.643 254.772C392.507 255.615 393.601 256.036 394.923 256.036C395.457 256.036 395.883 255.951 396.203 255.78C396.523 255.599 396.683 255.353 396.683 255.044C396.683 254.479 396.059 254.137 394.811 254.02C394.129 253.956 393.542 253.865 393.051 253.748C392.561 253.62 392.086 253.428 391.627 253.172C391.179 252.916 390.838 252.559 390.603 252.1C390.369 251.631 390.251 251.06 390.251 250.388C390.251 249.279 390.705 248.436 391.611 247.86C392.529 247.284 393.638 246.996 394.939 246.996C396.603 246.996 398.001 247.439 399.131 248.324ZM407.317 258.42V249.828H404.053V247.22H413.749V249.828H410.469V258.42H407.317ZM425.488 258.228V258.42H422L419.392 254.788H418.288V258.42H415.12V247.22H420.592C421.958 247.22 423.024 247.593 423.792 248.34C424.56 249.087 424.944 249.999 424.944 251.076C424.944 251.833 424.768 252.489 424.416 253.044C424.075 253.588 423.462 254.057 422.576 254.452L425.488 258.228ZM420.592 249.748H418.288V252.436H420.624C421.019 252.436 421.318 252.313 421.52 252.068C421.723 251.812 421.824 251.503 421.824 251.14C421.824 250.756 421.718 250.431 421.504 250.164C421.291 249.887 420.987 249.748 420.592 249.748ZM430.069 258.42H426.917V247.22H430.069V258.42ZM435.507 249.94V252.724H437.779C438.195 252.724 438.52 252.596 438.755 252.34C438.99 252.073 439.107 251.743 439.107 251.348C439.107 250.953 438.99 250.623 438.755 250.356C438.52 250.079 438.195 249.94 437.779 249.94H435.507ZM437.779 255.396H435.507V258.42H432.339V247.22H437.779C439.219 247.22 440.328 247.609 441.107 248.388C441.886 249.167 442.275 250.137 442.275 251.3C442.275 252.495 441.886 253.476 441.107 254.244C440.328 255.001 439.219 255.385 437.779 255.396Z" fill="#17181A"/>
</g>
</svg>
