<svg width="684" height="339" viewBox="0 0 684 339" fill="none" xmlns="http://www.w3.org/2000/svg">
<mask id="mask0_41_505" style="mask-type:alpha" maskUnits="userSpaceOnUse" x="0" y="0" width="684" height="339">
<rect x="0.966797" y="0.441406" width="682.345" height="337.86" fill="#F5F0EA"/>
<rect x="0.966797" y="0.441406" width="682.345" height="337.86" stroke="white"/>
</mask>
<g mask="url(#mask0_41_505)">
<path d="M519.076 0.441406H683.276V152.478C683.276 152.478 560.126 190.488 519.076 152.478C478.025 114.469 519.076 0.441406 519.076 0.441406Z" fill="#0091F2"/>
<path d="M519.076 0.441406H683.276V152.478C683.276 152.478 560.126 190.488 519.076 152.478C478.025 114.469 519.076 0.441406 519.076 0.441406Z" stroke="white"/>
<path d="M217 237C217 233.134 220.134 230 224 230H532C535.866 230 539 233.134 539 237V275C539 278.866 535.866 282 532 282H224C220.134 282 217 278.866 217 275V237Z" fill="#F78F1F"/>
<path d="M217 237C217 233.134 220.134 230 224 230H532C535.866 230 539 233.134 539 237V275C539 278.866 535.866 282 532 282H224C220.134 282 217 278.866 217 275V237Z" stroke="white"/>
<path d="M325.192 248.8L320.536 260.048H317.448L312.792 248.8H316.296L317.576 252.16L318.984 256.304L320.408 252.16L321.688 248.8H325.192ZM329.272 260H326.12V248.8H329.272V260ZM340.502 257.328V260H331.542V248.8H340.278V251.456H334.662V253.056H339.958V255.632H334.662V257.328H340.502ZM358.308 248.8L354.228 259.984H351.652L349.668 254.624L347.748 259.984H345.188L341.012 248.8H344.468L345.908 252.736C346.068 253.227 346.266 254.091 346.5 255.328L348.564 248.8H350.756L352.884 255.328C353.044 254.464 353.252 253.573 353.508 252.656L354.852 248.8H358.308ZM364.832 260V251.408H361.568V248.8H371.264V251.408H367.984V260H364.832ZM382.972 260.016H379.836V255.776H375.804V260.016H372.636V248.816H375.804V253.072H379.836V248.816H382.972V260.016ZM388.397 260H385.245V248.8H388.397V260ZM399.131 249.904L397.563 251.904C396.881 251.392 396.006 251.136 394.939 251.136C394.513 251.136 394.15 251.205 393.851 251.344C393.563 251.483 393.419 251.691 393.419 251.968C393.419 252.32 393.563 252.56 393.851 252.688C394.139 252.805 394.614 252.896 395.275 252.96C395.883 253.024 396.438 253.136 396.939 253.296C397.441 253.445 397.915 253.659 398.363 253.936C398.822 254.213 399.179 254.587 399.435 255.056C399.691 255.515 399.819 256.053 399.819 256.672C399.819 257.483 399.579 258.171 399.099 258.736C398.619 259.301 398.017 259.707 397.291 259.952C396.577 260.187 395.782 260.309 394.907 260.32C393.819 260.331 392.897 260.203 392.139 259.936C391.382 259.659 390.635 259.131 389.899 258.352L391.643 256.352C392.507 257.195 393.601 257.616 394.923 257.616C395.457 257.616 395.883 257.531 396.203 257.36C396.523 257.179 396.683 256.933 396.683 256.624C396.683 256.059 396.059 255.717 394.811 255.6C394.129 255.536 393.542 255.445 393.051 255.328C392.561 255.2 392.086 255.008 391.627 254.752C391.179 254.496 390.838 254.139 390.603 253.68C390.369 253.211 390.251 252.64 390.251 251.968C390.251 250.859 390.705 250.016 391.611 249.44C392.529 248.864 393.638 248.576 394.939 248.576C396.603 248.576 398.001 249.019 399.131 249.904ZM407.317 260V251.408H404.053V248.8H413.749V251.408H410.469V260H407.317ZM425.488 259.808V260H422L419.392 256.368H418.288V260H415.12V248.8H420.592C421.958 248.8 423.024 249.173 423.792 249.92C424.56 250.667 424.944 251.579 424.944 252.656C424.944 253.413 424.768 254.069 424.416 254.624C424.075 255.168 423.462 255.637 422.576 256.032L425.488 259.808ZM420.592 251.328H418.288V254.016H420.624C421.019 254.016 421.318 253.893 421.52 253.648C421.723 253.392 421.824 253.083 421.824 252.72C421.824 252.336 421.718 252.011 421.504 251.744C421.291 251.467 420.987 251.328 420.592 251.328ZM430.069 260H426.917V248.8H430.069V260ZM435.507 251.52V254.304H437.779C438.195 254.304 438.52 254.176 438.755 253.92C438.99 253.653 439.107 253.323 439.107 252.928C439.107 252.533 438.99 252.203 438.755 251.936C438.52 251.659 438.195 251.52 437.779 251.52H435.507ZM437.779 256.976H435.507V260H432.339V248.8H437.779C439.219 248.8 440.328 249.189 441.107 249.968C441.886 250.747 442.275 251.717 442.275 252.88C442.275 254.075 441.886 255.056 441.107 255.824C440.328 256.581 439.219 256.965 437.779 256.976Z" fill="#17181A"/>
</g>
</svg>
